<svg width="35" height="35" viewBox="0 0 35 35" fill="none" xmlns="http://www.w3.org/2000/svg">
<path d="M9.47919 11.6667C10.6873 11.6667 11.6667 10.6873 11.6667 9.47916C11.6667 8.27103 10.6873 7.29166 9.47919 7.29166C8.27106 7.29166 7.29169 8.27103 7.29169 9.47916C7.29169 10.6873 8.27106 11.6667 9.47919 11.6667Z" fill="#92B558"/>
<path d="M7.29169 14.5833C7.29169 13.7779 7.94461 13.125 8.75002 13.125H10.2084C11.0138 13.125 11.6667 13.7779 11.6667 14.5833V26.25C11.6667 27.0554 11.0138 27.7083 10.2084 27.7083H8.75002C7.94461 27.7083 7.29169 27.0554 7.29169 26.25V14.5833Z" fill="#92B558"/>
<path d="M16.0416 27.7083H17.5C18.3054 27.7083 18.9583 27.0554 18.9583 26.25V19.6875C18.9583 17.5 23.3333 16.0417 23.3333 18.9583V26.2506C23.3333 27.056 23.9862 27.7083 24.7916 27.7083H26.25C27.0554 27.7083 27.7083 27.0554 27.7083 26.25V17.5C27.7083 14.5833 25.5208 13.125 22.6041 13.125C19.6875 13.125 18.9583 15.3125 18.9583 15.3125V14.5833C18.9583 13.7779 18.3054 13.125 17.5 13.125H16.0416C15.2362 13.125 14.5833 13.7779 14.5833 14.5833V26.25C14.5833 27.0554 15.2362 27.7083 16.0416 27.7083Z" fill="#92B558"/>
<path fill-rule="evenodd" clip-rule="evenodd" d="M29.1666 1.45834C31.583 1.45834 33.5416 3.4171 33.5416 5.83334V29.1667C33.5416 31.583 31.583 33.5417 29.1666 33.5417H5.83331C3.41707 33.5417 1.45831 31.583 1.45831 29.1667V5.83334C1.45831 3.4171 3.41707 1.45834 5.83331 1.45834H29.1666ZM29.1666 4.37501C29.9721 4.37501 30.625 5.02794 30.625 5.83334V29.1667C30.625 29.9721 29.9721 30.625 29.1666 30.625H5.83331C5.0279 30.625 4.37498 29.9721 4.37498 29.1667V5.83334C4.37498 5.02794 5.0279 4.37501 5.83331 4.37501H29.1666Z" fill="#92B558"/>
</svg>
