<svg width="35" height="35" viewBox="0 0 35 35" fill="none" xmlns="http://www.w3.org/2000/svg">
<path d="M5.83335 29.1667C5.03127 29.1667 4.34464 28.8811 3.77346 28.3099C3.20228 27.7387 2.91669 27.0521 2.91669 26.25V8.75001C2.91669 7.94793 3.20228 7.26129 3.77346 6.69011C4.34464 6.11893 5.03127 5.83334 5.83335 5.83334H29.1667C29.9688 5.83334 30.6554 6.11893 31.2266 6.69011C31.7978 7.26129 32.0834 7.94793 32.0834 8.75001V26.25C32.0834 27.0521 31.7978 27.7387 31.2266 28.3099C30.6554 28.8811 29.9688 29.1667 29.1667 29.1667H5.83335ZM17.5 18.9583L5.83335 11.6667V26.25H29.1667V11.6667L17.5 18.9583ZM17.5 16.0417L29.1667 8.75001H5.83335L17.5 16.0417ZM5.83335 11.6667V8.75001V26.25V11.6667Z" fill="#92B558"/>
</svg>
