<svg width="24" height="25" viewBox="0 0 24 25" fill="none" xmlns="http://www.w3.org/2000/svg">
<path d="M5 21.9564C4.45 21.9564 3.97917 21.7606 3.5875 21.3689C3.19583 20.9773 3 20.5064 3 19.9564V5.95642C3 5.40642 3.19583 4.93559 3.5875 4.54392C3.97917 4.15225 4.45 3.95642 5 3.95642H12V5.95642H5V19.9564H19V12.9564H21V19.9564C21 20.5064 20.8042 20.9773 20.4125 21.3689C20.0208 21.7606 19.55 21.9564 19 21.9564H5ZM9.7 16.6564L8.3 15.2564L17.6 5.95642H14V3.95642H21V10.9564H19V7.35642L9.7 16.6564Z" fill="#FF6F61"/>
</svg>
