<svg width="12" height="13" viewBox="0 0 12 13" fill="none" xmlns="http://www.w3.org/2000/svg">
<path d="M6 0.956543C9.3138 0.956543 12 3.64274 12 6.95654C12 10.2703 9.3138 12.9565 6 12.9565C2.6862 12.9565 0 10.2703 0 6.95654C0 3.64274 2.6862 0.956543 6 0.956543ZM6 1.79354C4.63069 1.79354 3.31746 2.3375 2.34921 3.30575C1.38096 4.274 0.837 5.58723 0.837 6.95654C0.837 8.32586 1.38096 9.63908 2.34921 10.6073C3.31746 11.5756 4.63069 12.1195 6 12.1195C7.36931 12.1195 8.68254 11.5756 9.65079 10.6073C10.619 9.63908 11.163 8.32586 11.163 6.95654C11.163 5.58723 10.619 4.274 9.65079 3.30575C8.68254 2.3375 7.36931 1.79354 6 1.79354ZM6.096 3.74714C6.744 3.74714 7.3662 3.92894 7.8978 4.26554C7.98639 4.32712 8.0478 4.42052 8.06923 4.52626C8.09065 4.632 8.07045 4.74194 8.01281 4.83314C7.95518 4.92435 7.86457 4.9898 7.75986 5.01584C7.65516 5.04189 7.54445 5.02652 7.4508 4.97294C7.04548 4.71744 6.57573 4.58277 6.0966 4.58474C4.7298 4.58474 3.6282 5.64974 3.6282 6.95654C3.6282 8.26334 4.7298 9.32834 6.0966 9.32834C6.5772 9.32834 7.0368 9.19634 7.431 8.95214C7.47776 8.92319 7.52977 8.90372 7.58406 8.89487C7.63834 8.88601 7.69384 8.88793 7.74738 8.90053C7.80093 8.91312 7.85146 8.93613 7.89611 8.96825C7.94076 9.00038 7.97864 9.04098 8.0076 9.08774C8.03656 9.13451 8.05602 9.18652 8.06488 9.2408C8.07373 9.29509 8.07181 9.35058 8.05922 9.40413C8.04663 9.45767 8.02361 9.50821 7.99149 9.55286C7.95937 9.5975 7.91876 9.63539 7.872 9.66434C7.33842 9.99403 6.72321 10.1678 6.096 10.1659C4.2738 10.1659 2.7906 8.73194 2.7906 6.95654C2.7906 5.18114 4.2738 3.74714 6.0966 3.74714" fill="#F9F9F9"/>
</svg>
